<?xml version="1.0" encoding="UTF-8" standalone="no"?>
<!-- Created with Inkscape (http://www.inkscape.org/) -->
<svg
   xmlns:dc="http://purl.org/dc/elements/1.1/"
   xmlns:cc="http://creativecommons.org/ns#"
   xmlns:rdf="http://www.w3.org/1999/02/22-rdf-syntax-ns#"
   xmlns:svg="http://www.w3.org/2000/svg"
   xmlns="http://www.w3.org/2000/svg"
   xmlns:sodipodi="http://sodipodi.sourceforge.net/DTD/sodipodi-0.dtd"
   xmlns:inkscape="http://www.inkscape.org/namespaces/inkscape"
   width="744.09448819"
   height="1052.3622047"
   id="svg2383"
   sodipodi:version="0.32"
   inkscape:version="0.46"
   sodipodi:docname="circonferenza2.svg"
   inkscape:output_extension="org.inkscape.output.svg.inkscape">
  <defs
     id="defs2385">
    <marker
       inkscape:stockid="Arrow1Lstart"
       orient="auto"
       refY="0.0"
       refX="0.0"
       id="Arrow1Lstart"
       style="overflow:visible">
      <path
         id="path3666"
         d="M 0.0,0.0 L 5.0,-5.0 L -12.5,0.0 L 5.0,5.0 L 0.0,0.0 z "
         style="fill-rule:evenodd;stroke:#000000;stroke-width:1.0pt;marker-start:none"
         transform="scale(0.8) translate(12.5,0)" />
    </marker>
    <marker
       inkscape:stockid="Arrow1Lend"
       orient="auto"
       refY="0.0"
       refX="0.0"
       id="Arrow1Lend"
       style="overflow:visible;">
      <path
         id="path3669"
         d="M 0.0,0.0 L 5.0,-5.0 L -12.5,0.0 L 5.0,5.0 L 0.0,0.0 z "
         style="fill-rule:evenodd;stroke:#000000;stroke-width:1.0pt;marker-start:none;"
         transform="scale(0.8) rotate(180) translate(12.5,0)" />
    </marker>
    <inkscape:perspective
       sodipodi:type="inkscape:persp3d"
       inkscape:vp_x="0 : 526.18109 : 1"
       inkscape:vp_y="0 : 1000 : 0"
       inkscape:vp_z="744.09448 : 526.18109 : 1"
       inkscape:persp3d-origin="372.04724 : 350.78739 : 1"
       id="perspective2391" />
    <inkscape:perspective
       id="perspective2801"
       inkscape:persp3d-origin="3543 : 1844.3333 : 1"
       inkscape:vp_z="7086 : 2766.5 : 1"
       inkscape:vp_y="0 : 1000 : 0"
       inkscape:vp_x="0 : 2766.5 : 1"
       sodipodi:type="inkscape:persp3d" />
  </defs>
  <sodipodi:namedview
     id="base"
     pagecolor="#ffffff"
     bordercolor="#666666"
     borderopacity="1.0"
     inkscape:pageopacity="0.0"
     inkscape:pageshadow="2"
     inkscape:zoom="0.0625"
     inkscape:cx="-345.95634"
     inkscape:cy="1892.5299"
     inkscape:document-units="px"
     inkscape:current-layer="layer1"
     showgrid="true"
     inkscape:window-width="1172"
     inkscape:window-height="844"
     inkscape:window-x="264"
     inkscape:window-y="-4">
    <inkscape:grid
       type="xygrid"
       id="grid6531" />
  </sodipodi:namedview>
  <metadata
     id="metadata2388">
    <rdf:RDF>
      <cc:Work
         rdf:about="">
        <dc:format>image/svg+xml</dc:format>
        <dc:type
           rdf:resource="http://purl.org/dc/dcmitype/StillImage" />
      </cc:Work>
    </rdf:RDF>
  </metadata>
  <g
     inkscape:label="Livello 1"
     inkscape:groupmode="layer"
     id="layer1">
    <g
       id="g2624"
       stroke-miterlimit="10"
       transform="translate(-3103.101,-2077.9969)"
       style="stroke-width:1;stroke-linecap:square;stroke-linejoin:miter;stroke-miterlimit:10;stroke-dasharray:none;stroke-dashoffset:0">
      <g
         id="g2626"
         transform="scale(7.8046412,7.8046412)">
        <g
           id="g2628"
           style="fill:#ffffff;fill-opacity:1;fill-rule:nonzero;stroke:none">
          <path
             id="path2630"
             d="M 0,0 L 908,0 L 908,709 L 0,709 L 0,0 z" />
        </g>
<!-- drawing style -->      </g>
<!-- transform -->      <g
         id="g2632"
         transform="scale(7.8046412,7.8046412)">
        <g
           id="g2634"
           style="fill:none;stroke:#000000;stroke-linecap:butt;stroke-opacity:1">
          <path
             id="path2636"
             d="M 0,354.5 L 908,354.5" />
        </g>
<!-- drawing style -->      </g>
<!-- transform -->      <g
         id="g2638"
         transform="scale(7.8046412,7.8046412)">
        <g
           id="g2640"
           style="fill:none;stroke:#000000;stroke-linecap:butt;stroke-opacity:1">
          <path
             id="path2642"
             d="M 907,354.5 L 902,349.5" />
        </g>
<!-- drawing style -->      </g>
<!-- transform -->      <g
         id="g2644"
         transform="scale(7.8046412,7.8046412)">
        <g
           id="g2646"
           style="fill:none;stroke:#000000;stroke-linecap:butt;stroke-opacity:1">
          <path
             id="path2648"
             d="M 907,354.5 L 902,359.5" />
        </g>
<!-- drawing style -->      </g>
<!-- transform -->      <g
         id="g2650"
         transform="scale(7.8046412,7.8046412)">
        <g
           id="g2652"
           style="fill:none;stroke:#000000;stroke-linecap:butt;stroke-opacity:1">
          <path
             id="path2654"
             d="M 454,0 L 454,709" />
        </g>
<!-- drawing style -->      </g>
<!-- transform -->      <g
         id="g2656"
         transform="scale(7.8046412,7.8046412)">
        <g
           id="g2658"
           style="fill:none;stroke:#000000;stroke-linecap:butt;stroke-opacity:1">
          <path
             id="path2660"
             d="M 454,0 L 449,5" />
        </g>
<!-- drawing style -->      </g>
<!-- transform -->      <g
         id="g2662"
         transform="scale(7.8046412,7.8046412)">
        <g
           id="g2664"
           style="fill:none;stroke:#000000;stroke-linecap:butt;stroke-opacity:1">
          <path
             id="path2666"
             d="M 454,0 L 459,5" />
        </g>
<!-- drawing style -->      </g>
<!-- transform -->      <g
         id="misc" />
<!-- misc -->      <g
         id="layer0">
        <g
           id="g2670"
           transform="scale(7.8046412,7.8046412)">
          <g
             id="g2672"
             style="fill:#000000;fill-opacity:1;fill-rule:nonzero;stroke:none">
            <path
               id="path2674"
               d="M 548.14062,329.54688 L 550.96875,329.54688 C 550.52083,330.45312 550.14844,331.61198 549.85156,333.02344 C 549.55469,334.4349 549.40625,335.42188 549.40625,335.98438 C 549.40625,336.71354 549.54167,337.66406 549.8125,338.83594 C 550.08333,340.00781 550.42708,341.0625 550.84375,342 L 548.07812,342 C 548.03646,341.84375 547.96354,341.625 547.85938,341.34375 C 547.70312,340.875 547.5625,340.40625 547.4375,339.9375 C 546.47917,341.5 545.10938,342.28125 543.32812,342.28125 C 541.65104,342.28125 540.33073,341.59896 539.36719,340.23438 C 538.40365,338.86979 537.92188,337.27604 537.92188,335.45312 C 537.92188,333.73438 538.40104,332.27344 539.35938,331.07031 C 540.31771,329.86719 541.65104,329.26562 543.35938,329.26562 C 545.04688,329.26562 546.41146,330.07812 547.45312,331.70312 C 547.59896,331.13021 547.82812,330.41146 548.14062,329.54688 z M 541.29688,335.8125 C 541.29688,336.95833 541.53906,337.88802 542.02344,338.60156 C 542.50781,339.3151 543.14062,339.67188 543.92188,339.67188 C 544.67188,339.67188 545.28646,339.35677 545.76562,338.72656 C 546.24479,338.09635 546.48438,337.125 546.48438,335.8125 C 546.48438,334.52083 546.22917,333.54427 545.71875,332.88281 C 545.20833,332.22135 544.59375,331.89062 543.875,331.89062 C 543.125,331.89062 542.50781,332.23438 542.02344,332.92188 C 541.53906,333.60938 541.29688,334.57292 541.29688,335.8125 z" />
          </g>
<!-- drawing style -->        </g>
<!-- transform -->        <g
           id="g2676"
           transform="scale(7.8046412,7.8046412)">
          <g
             id="g2678"
             style="fill:#000000;fill-opacity:1;fill-rule:nonzero;stroke:none">
            <path
               id="path2680"
               d="M 522.34375,398.42188 L 522.34375,395.125 L 528.8125,395.125 L 528.8125,398.42188 L 522.34375,398.42188 z" />
          </g>
<!-- drawing style -->        </g>
<!-- transform -->        <g
           id="g2682"
           transform="scale(7.8046412,7.8046412)">
          <g
             id="g2684"
             style="fill:#000000;fill-opacity:1;fill-rule:nonzero;stroke:none">
            <path
               id="path2686"
               d="M 531.6875,407.73438 L 531.6875,391.9375 C 531.6875,389.47917 532.29427,387.79688 533.50781,386.89062 C 534.72135,385.98438 536.0625,385.53125 537.53125,385.53125 C 539.01042,385.53125 540.25781,385.94271 541.27344,386.76562 C 542.28906,387.58854 542.79688,388.66146 542.79688,389.98438 C 542.79688,390.83854 542.52344,391.59115 541.97656,392.24219 C 541.42969,392.89323 540.75,393.32292 539.9375,393.53125 C 541.25,393.75 542.21354,394.3151 542.82812,395.22656 C 543.44271,396.13802 543.75,397.15104 543.75,398.26562 C 543.75,399.64062 543.33594,400.82031 542.50781,401.80469 C 541.67969,402.78906 540.55208,403.28125 539.125,403.28125 C 537.46875,403.28125 536.08854,402.58333 534.98438,401.1875 L 534.98438,407.73438 L 531.6875,407.73438 z M 536.46875,392.78125 C 537.46875,392.76042 538.25,392.52083 538.8125,392.0625 C 539.375,391.60417 539.65625,391.02083 539.65625,390.3125 C 539.65625,389.65625 539.43229,389.1276 538.98438,388.72656 C 538.53646,388.32552 537.99479,388.125 537.35938,388.125 C 536.81771,388.125 536.35156,388.29167 535.96094,388.625 C 535.57031,388.95833 535.3099,389.38542 535.17969,389.90625 C 535.04948,390.42708 534.98438,391.19271 534.98438,392.20312 L 534.98438,395.75 C 534.98438,396.8125 535.07552,397.66406 535.25781,398.30469 C 535.4401,398.94531 535.8099,399.5 536.36719,399.96875 C 536.92448,400.4375 537.52604,400.67188 538.17188,400.67188 C 538.79688,400.67188 539.32031,400.4401 539.74219,399.97656 C 540.16406,399.51302 540.375,398.91667 540.375,398.1875 C 540.375,397.125 540.05729,396.26302 539.42188,395.60156 C 538.78646,394.9401 537.80208,394.60938 536.46875,394.60938 L 536.46875,392.78125 z" />
          </g>
<!-- drawing style -->        </g>
<!-- transform -->        <g
           id="g2688"
           transform="scale(7.8046412,7.8046412)">
          <g
             id="g2690"
             style="fill:#000000;fill-opacity:1;fill-rule:nonzero;stroke:none">
            <path
               id="path2692"
               d="M 702.45312,343 L 699.15625,343 L 699.15625,330.59375 C 697.94792,331.71875 696.53125,332.54688 694.90625,333.07812 L 694.90625,330.09375 C 695.76042,329.8125 696.69271,329.27865 697.70312,328.49219 C 698.71354,327.70573 699.40625,326.79167 699.78125,325.75 L 702.45312,325.75 L 702.45312,343 z" />
          </g>
<!-- drawing style -->        </g>
<!-- transform -->        <g
           id="g2694"
           transform="scale(7.8046412,7.8046412)">
          <g
             id="g2696"
             style="fill:none;stroke:#000000;stroke-width:2.5;stroke-linecap:round;stroke-linejoin:round;stroke-opacity:1">
            <path
               id="path2698"
               d="M 718.83333,354.5 C 718.83333,500.76341 600.26341,619.33333 454,619.33333 C 307.73659,619.33333 189.16667,500.76341 189.16667,354.5 C 189.16667,208.23659 307.73659,89.666667 454,89.666667 C 600.26341,89.666667 718.83333,208.23659 718.83333,354.5 z" />
          </g>
<!-- drawing style -->        </g>
<!-- transform -->        <g
           id="g2700"
           transform="scale(7.8046412,7.8046412)">
          <g
             id="g2702"
             style="fill:#006400;fill-opacity:0.10196078;fill-rule:nonzero;stroke:none">
            <path
               id="path2704"
               d="M 499,354.5 C 499,344.79842 495.86468,335.35661 490.06143,327.58211 L 454,354.5 L 499,354.5 z" />
          </g>
<!-- drawing style -->        </g>
<!-- transform -->        <g
           id="g2706"
           transform="scale(7.8046412,7.8046412)">
          <g
             id="g2708"
             style="fill:none;stroke:#006400;stroke-width:2.5;stroke-linecap:round;stroke-linejoin:round;stroke-opacity:1">
            <path
               id="path2710"
               d="M 499,354.5 C 499,344.79842 495.86468,335.35661 490.06143,327.58211 L 454,354.5 L 499,354.5 z" />
          </g>
<!-- drawing style -->        </g>
<!-- transform -->        <g
           id="g2712"
           transform="scale(7.8046412,7.8046412)">
          <g
             id="g2714"
             style="fill:#006400;fill-opacity:0.25098039;fill-rule:nonzero;stroke:none">
            <path
               id="path2716"
               d="M 482.34683,389.44935 C 492.88154,380.90483 499,368.06425 499,354.5 L 454,354.5 L 482.34683,389.44935 z" />
          </g>
<!-- drawing style -->        </g>
<!-- transform -->        <g
           id="g2718"
           transform="scale(7.8046412,7.8046412)">
          <g
             id="g2720"
             style="fill:none;stroke:#006400;stroke-width:2.5;stroke-linecap:round;stroke-linejoin:round;stroke-opacity:1">
            <path
               id="path2722"
               d="M 482.34683,389.44935 C 492.88154,380.90483 499,368.06425 499,354.5 L 454,354.5 L 482.34683,389.44935 z" />
          </g>
<!-- drawing style -->        </g>
<!-- transform -->        <g
           id="g2724"
           transform="scale(7.8046412,7.8046412)">
          <g
             id="g2726"
             style="fill:none;stroke:#006400;stroke-width:2.5;stroke-linecap:round;stroke-linejoin:round;stroke-opacity:1">
            <path
               id="path2728"
               d="M 478.25229,384.40111 C 487.26531,377.0908 492.5,366.10497 492.5,354.5" />
          </g>
<!-- drawing style -->        </g>
<!-- transform -->        <g
           id="g2730"
           transform="scale(7.8046412,7.8046412)">
          <g
             id="g2732"
             style="fill:none;stroke:#000000;stroke-width:2.5;stroke-linecap:round;stroke-linejoin:round;stroke-opacity:1">
            <path
               id="path2734"
               d="M 454,354.5 L 666.22821,196.08321" />
          </g>
<!-- drawing style -->        </g>
<!-- transform -->        <g
           id="g2736"
           transform="scale(7.8046412,7.8046412)">
          <g
             id="g2738"
             style="fill:none;stroke:#000000;stroke-width:2.5;stroke-linecap:round;stroke-linejoin:round;stroke-opacity:1">
            <path
               id="path2740"
               d="M 454,354.5 L 620.82635,560.18341" />
          </g>
<!-- drawing style -->        </g>
<!-- transform -->        <g
           id="g2742"
           transform="scale(7.8046412,7.8046412)">
          <g
             id="g2744"
             style="fill:#000000;fill-opacity:1;fill-rule:nonzero;stroke:none">
            <path
               id="path2746"
               d="M 671.22821,196.08321 C 671.22821,198.84463 668.98964,201.08321 666.22821,201.08321 C 663.46679,201.08321 661.22821,198.84463 661.22821,196.08321 C 661.22821,193.32178 663.46679,191.08321 666.22821,191.08321 C 668.98964,191.08321 671.22821,193.32178 671.22821,196.08321 z" />
          </g>
<!-- drawing style -->        </g>
<!-- transform -->        <g
           id="g2748"
           transform="scale(7.8046412,7.8046412)">
          <g
             id="g2750"
             style="fill:none;stroke:#000000;stroke-linecap:round;stroke-linejoin:round;stroke-opacity:1">
            <path
               id="path2752"
               d="M 671.22821,196.08321 C 671.22821,198.84463 668.98964,201.08321 666.22821,201.08321 C 663.46679,201.08321 661.22821,198.84463 661.22821,196.08321 C 661.22821,193.32178 663.46679,191.08321 666.22821,191.08321 C 668.98964,191.08321 671.22821,193.32178 671.22821,196.08321 z" />
          </g>
<!-- drawing style -->        </g>
<!-- transform -->        <g
           id="g2754"
           transform="scale(7.8046412,7.8046412)">
          <g
             id="g2756"
             style="fill:#000000;fill-opacity:1;fill-rule:nonzero;stroke:none">
            <path
               id="path2758"
               d="M 671.3125,186 L 671.3125,173.10938 L 676.15625,173.10938 C 677.13542,173.10938 677.92188,173.23958 678.51562,173.5 C 679.10938,173.76042 679.57552,174.16146 679.91406,174.70312 C 680.2526,175.24479 680.42188,175.8125 680.42188,176.40625 C 680.42188,176.95833 680.27344,177.47917 679.97656,177.96875 C 679.67969,178.45833 679.22917,178.84896 678.625,179.14062 C 679.40625,179.36979 680.00521,179.76042 680.42188,180.3125 C 680.83854,180.86458 681.04688,181.51562 681.04688,182.26562 C 681.04688,182.86979 680.91927,183.42969 680.66406,183.94531 C 680.40885,184.46094 680.09375,184.85938 679.71875,185.14062 C 679.34375,185.42188 678.875,185.63542 678.3125,185.78125 C 677.75,185.92708 677.05729,186 676.23438,186 L 671.3125,186 z M 673.03125,178.53125 L 675.8125,178.53125 C 676.5625,178.53125 677.10417,178.47917 677.4375,178.375 C 677.875,178.25 678.20312,178.03906 678.42188,177.74219 C 678.64062,177.44531 678.75,177.06771 678.75,176.60938 C 678.75,176.18229 678.64583,175.80729 678.4375,175.48438 C 678.22917,175.16146 677.9349,174.9401 677.55469,174.82031 C 677.17448,174.70052 676.52083,174.64062 675.59375,174.64062 L 673.03125,174.64062 L 673.03125,178.53125 z M 673.03125,184.48438 L 676.23438,184.48438 C 676.78646,184.48438 677.17188,184.46354 677.39062,184.42188 C 677.78646,184.34896 678.11458,184.22917 678.375,184.0625 C 678.63542,183.89583 678.85156,183.65625 679.02344,183.34375 C 679.19531,183.03125 679.28125,182.67188 679.28125,182.26562 C 679.28125,181.78646 679.15885,181.36979 678.91406,181.01562 C 678.66927,180.66146 678.32812,180.41146 677.89062,180.26562 C 677.45312,180.11979 676.82292,180.04688 676,180.04688 L 673.03125,180.04688 L 673.03125,184.48438 z" />
          </g>
<!-- drawing style -->        </g>
<!-- transform -->        <g
           id="g2760"
           transform="scale(7.8046412,7.8046412)">
          <g
             id="g2762"
             style="fill:#000000;fill-opacity:1;fill-rule:nonzero;stroke:none">
            <path
               id="path2764"
               d="M 625.82634,560.18341 C 625.82634,562.94483 623.58777,565.18341 620.82634,565.18341 C 618.06492,565.18341 615.82634,562.94483 615.82634,560.18341 C 615.82634,557.42199 618.06492,555.18341 620.82634,555.18341 C 623.58777,555.18341 625.82634,557.42199 625.82634,560.18341 z" />
          </g>
<!-- drawing style -->        </g>
<!-- transform -->        <g
           id="g2766"
           transform="scale(7.8046412,7.8046412)">
          <g
             id="g2768"
             style="fill:none;stroke:#000000;stroke-linecap:round;stroke-linejoin:round;stroke-opacity:1">
            <path
               id="path2770"
               d="M 625.82634,560.18341 C 625.82634,562.94483 623.58777,565.18341 620.82634,565.18341 C 618.06492,565.18341 615.82634,562.94483 615.82634,560.18341 C 615.82634,557.42199 618.06492,555.18341 620.82634,555.18341 C 623.58777,555.18341 625.82634,557.42199 625.82634,560.18341 z" />
          </g>
<!-- drawing style -->        </g>
<!-- transform -->        <g
           id="g2772"
           transform="scale(7.8046412,7.8046412)">
          <g
             id="g2774"
             style="fill:#000000;fill-opacity:1;fill-rule:nonzero;stroke:none">
            <path
               id="path2776"
               d="M 649.57812,575.48438 L 651.28125,575.90625 C 650.92708,577.3125 650.28646,578.38281 649.35938,579.11719 C 648.43229,579.85156 647.29688,580.21875 645.95312,580.21875 C 644.56771,580.21875 643.4401,579.9349 642.57031,579.36719 C 641.70052,578.79948 641.03646,577.98177 640.57812,576.91406 C 640.11979,575.84635 639.89062,574.69271 639.89062,573.45312 C 639.89062,572.11979 640.14844,570.95312 640.66406,569.95312 C 641.17969,568.95312 641.91146,568.19271 642.85938,567.67188 C 643.80729,567.15104 644.84896,566.89062 645.98438,566.89062 C 647.26562,566.89062 648.34635,567.21875 649.22656,567.875 C 650.10677,568.53125 650.71875,569.45312 651.0625,570.64062 L 649.39062,571.04688 C 649.08854,570.10938 648.65365,569.42708 648.08594,569 C 647.51823,568.57292 646.80208,568.35938 645.9375,568.35938 C 644.94792,568.35938 644.1224,568.59635 643.46094,569.07031 C 642.79948,569.54427 642.33333,570.17969 642.0625,570.97656 C 641.79167,571.77344 641.65625,572.59896 641.65625,573.45312 C 641.65625,574.54688 641.8151,575.5026 642.13281,576.32031 C 642.45052,577.13802 642.94792,577.75 643.625,578.15625 C 644.30208,578.5625 645.03125,578.76562 645.8125,578.76562 C 646.77083,578.76562 647.58073,578.48958 648.24219,577.9375 C 648.90365,577.38542 649.34896,576.56771 649.57812,575.48438 z" />
          </g>
<!-- drawing style -->        </g>
<!-- transform -->        <g
           id="g2778"
           transform="scale(7.8046412,7.8046412)">
          <g
             id="g2780"
             style="fill:#404040;fill-opacity:1;fill-rule:nonzero;stroke:none">
            <path
               id="path2782"
               d="M 459,354.5 C 459,357.26142 456.76142,359.5 454,359.5 C 451.23858,359.5 449,357.26142 449,354.5 C 449,351.73858 451.23858,349.5 454,349.5 C 456.76142,349.5 459,351.73858 459,354.5 z" />
          </g>
<!-- drawing style -->        </g>
<!-- transform -->        <g
           id="g2784"
           transform="scale(7.8046412,7.8046412)">
          <g
             id="g2786"
             style="fill:none;stroke:#000000;stroke-linecap:round;stroke-linejoin:round;stroke-opacity:1">
            <path
               id="path2788"
               d="M 459,354.5 C 459,357.26142 456.76142,359.5 454,359.5 C 451.23858,359.5 449,357.26142 449,354.5 C 449,351.73858 451.23858,349.5 454,349.5 C 456.76142,349.5 459,351.73858 459,354.5 z" />
          </g>
<!-- drawing style -->        </g>
<!-- transform -->        <g
           id="g2790"
           transform="scale(7.8046412,7.8046412)">
          <g
             id="g2792"
             style="fill:#404040;fill-opacity:1;fill-rule:nonzero;stroke:none">
            <path
               id="path2794"
               d="M 432.875,339.71875 C 432.875,337.58333 433.44792,335.91146 434.59375,334.70312 C 435.73958,333.49479 437.22396,332.89062 439.04688,332.89062 C 440.23438,332.89062 441.30469,333.17448 442.25781,333.74219 C 443.21094,334.3099 443.9375,335.10156 444.4375,336.11719 C 444.9375,337.13281 445.1875,338.28646 445.1875,339.57812 C 445.1875,340.88021 444.92448,342.04688 444.39844,343.07812 C 443.8724,344.10938 443.125,344.89062 442.15625,345.42188 C 441.1875,345.95312 440.14583,346.21875 439.03125,346.21875 C 437.82292,346.21875 436.73958,345.92708 435.78125,345.34375 C 434.82292,344.76042 434.09896,343.96094 433.60938,342.94531 C 433.11979,341.92969 432.875,340.85417 432.875,339.71875 z M 434.625,339.75 C 434.625,341.30208 435.04427,342.52604 435.88281,343.42188 C 436.72135,344.31771 437.76562,344.76562 439.01562,344.76562 C 440.30729,344.76562 441.36719,344.3125 442.19531,343.40625 C 443.02344,342.5 443.4375,341.21875 443.4375,339.5625 C 443.4375,338.52083 443.26042,337.60677 442.90625,336.82031 C 442.55208,336.03385 442.03385,335.42708 441.35156,335 C 440.66927,334.57292 439.90104,334.35938 439.04688,334.35938 C 437.83854,334.35938 436.79948,334.77344 435.92969,335.60156 C 435.0599,336.42969 434.625,337.8125 434.625,339.75 z" />
          </g>
<!-- drawing style -->        </g>
<!-- transform -->      </g>
<!-- layer0 -->    </g>
    <path
       style="fill:#000000;fill-opacity:1;fill-rule:evenodd;stroke:#000000;stroke-width:14.85334492;stroke-linecap:butt;stroke-linejoin:miter;marker-start:url(#Arrow1Lstart);stroke-miterlimit:4;stroke-dasharray:none;stroke-opacity:1"
       d="M 2378.7437,-575.8652 C 2467.1952,-365.2363 2542.7234,-185.97609 2606.1099,-33.159301 C 2613.5572,-15.205101 2620.8352,2.3494987 2627.947,19.511095 C 3219.4732,1446.9377 2661.1634,157.033 2661.1634,157.033"
       id="path2891"
       sodipodi:nodetypes="cssc"
       inkscape:transform-center-x="-222.5163"
       inkscape:transform-center-y="-432.71732" />
    <flowRoot
       xml:space="preserve"
       id="flowRoot6521"
       style="fill:black;stroke:none;stroke-opacity:1;stroke-width:1px;stroke-linejoin:miter;stroke-linecap:butt;fill-opacity:1;font-family:Bitstream Vera Sans;font-style:normal;font-weight:normal;font-size:40px"><flowRegion
         id="flowRegion6523"><rect
           id="rect6525"
           width="65.206055"
           height="130.41211"
           x="2621.2834"
           y="48.188927" /></flowRegion><flowPara
         id="flowPara6527"></flowPara></flowRoot>    <path
       style="fill:#000000;fill-opacity:1;fill-rule:evenodd;stroke:#000000;stroke-width:14.85334492;stroke-linecap:butt;stroke-linejoin:miter;marker-start:url(#Arrow1Lstart);stroke-miterlimit:4;stroke-dasharray:none;stroke-opacity:1"
       d="M 2328.4477,1947.791 C 2421.5576,1739.1796 2500.6301,1561.4544 2568.7226,1410.6757 C 2576.7227,1392.9607 2584.547,1375.6428 2592.1984,1358.7149 C 3228.6126,-49.272072 2669.776,1240.4046 2669.776,1240.4046"
       id="path6529"
       sodipodi:nodetypes="cssc"
       inkscape:transform-center-x="467.74297"
       inkscape:transform-center-y="133.7856" />
    <text
       xml:space="preserve"
       style="font-size:40px;font-style:normal;font-weight:normal;fill:#000000;fill-opacity:1;stroke:none;stroke-width:1px;stroke-linecap:butt;stroke-linejoin:miter;stroke-opacity:1;font-family:Bitstream Vera Sans"
       x="2777.7781"
       y="9.0652924"
       id="text6533"><tspan
         sodipodi:role="line"
         id="tspan6535"
         x="2777.7781"
         y="9.0652924" /></text>
    <flowRoot
       xml:space="preserve"
       id="flowRoot6537"
       style="fill:black;stroke:none;stroke-opacity:1;stroke-width:1px;stroke-linejoin:miter;stroke-linecap:butt;fill-opacity:1;font-family:Bitstream Vera Sans;font-style:normal;font-weight:normal;font-size:40px"><flowRegion
         id="flowRegion6539"><rect
           id="rect6541"
           width="652.06055"
           height="756.39026"
           x="2634.3247"
           y="-708.20129" /></flowRegion><flowPara
         id="flowPara6543"></flowPara></flowRoot>    <flowRoot
       xml:space="preserve"
       id="flowRoot6545"
       style="fill:black;stroke:none;stroke-opacity:1;stroke-width:1px;stroke-linejoin:miter;stroke-linecap:butt;fill-opacity:1;font-family:Bitstream Vera Sans;font-style:normal;font-weight:normal;font-size:40px"><flowRegion
         id="flowRegion6547"><rect
           id="rect6549"
           width="625.97815"
           height="978.09082"
           x="2869.0664"
           y="-343.04739" /></flowRegion><flowPara
         id="flowPara6551"></flowPara></flowRoot>    <text
       xml:space="preserve"
       style="font-size:40px;font-style:normal;font-weight:normal;fill:#000000;fill-opacity:1;stroke:none;stroke-width:1px;stroke-linecap:butt;stroke-linejoin:miter;stroke-opacity:1;font-family:Bitstream Vera Sans"
       x="3508.0857"
       y="191.64224"
       id="text6577"><tspan
         sodipodi:role="line"
         id="tspan6579"
         x="3508.0857"
         y="191.64224">*</tspan></text>
    <flowRoot
       xml:space="preserve"
       id="flowRoot6581"
       style="fill:black;stroke:none;stroke-opacity:1;stroke-width:1px;stroke-linejoin:miter;stroke-linecap:butt;fill-opacity:1;font-family:Bitstream Vera Sans;font-style:normal;font-weight:normal;font-size:40px"><flowRegion
         id="flowRegion6583"><rect
           id="rect6585"
           width="612.93695"
           height="769.43146"
           x="3468.9622"
           y="165.55983" /></flowRegion><flowPara
         id="flowPara6587"></flowPara></flowRoot>    <flowRoot
       xml:space="preserve"
       id="flowRoot6589"
       style="fill:black;stroke:none;stroke-opacity:1;stroke-width:1px;stroke-linejoin:miter;stroke-linecap:butt;fill-opacity:1;font-family:Bitstream Vera Sans;font-style:normal;font-weight:normal;font-size:40px"><flowRegion
         id="flowRegion6591"><rect
           id="rect6593"
           width="704.2254"
           height="1904.0168"
           x="2999.4785"
           y="-1542.8389" /></flowRegion><flowPara
         id="flowPara6595"></flowPara></flowRoot>    <flowRoot
       xml:space="preserve"
       id="flowRoot6597"
       style="fill:black;stroke:none;stroke-opacity:1;stroke-width:1px;stroke-linejoin:miter;stroke-linecap:butt;fill-opacity:1;font-family:Bitstream Vera Sans;font-style:normal;font-weight:normal;font-size:40px"><flowRegion
         id="flowRegion6599"><rect
           id="rect6601"
           width="117.3709"
           height="267.34482"
           x="1297.6005"
           y="289.45132" /></flowRegion><flowPara
         id="flowPara6603"></flowPara></flowRoot>    <flowRoot
       xml:space="preserve"
       id="flowRoot6609"
       style="fill:black;stroke:none;stroke-opacity:1;stroke-width:1px;stroke-linejoin:miter;stroke-linecap:butt;fill-opacity:1;font-family:Bitstream Vera Sans;font-style:normal;font-weight:normal;font-size:40px"><flowRegion
         id="flowRegion6611"><rect
           id="rect6613"
           width="984.61145"
           height="254.30362"
           x="1297.6005"
           y="348.13678" /></flowRegion><flowPara
         id="flowPara6615"></flowPara></flowRoot>    <flowRoot
       xml:space="preserve"
       id="flowRoot6617"
       style="fill:black;stroke:none;stroke-opacity:1;stroke-width:1px;stroke-linejoin:miter;stroke-linecap:butt;fill-opacity:1;font-family:Bitstream Vera Sans;font-style:normal;font-weight:normal;font-size:40px"><flowRegion
         id="flowRegion6619"><rect
           id="rect6621"
           width="32.603027"
           height="280.38605"
           x="1675.7957"
           y="74.271347" /></flowRegion><flowPara
         id="flowPara6623"></flowPara></flowRoot>    <flowRoot
       xml:space="preserve"
       id="flowRoot6625"
       style="fill:black;stroke:none;stroke-opacity:1;stroke-width:1px;stroke-linejoin:miter;stroke-linecap:butt;fill-opacity:1;font-family:Bitstream Vera Sans;font-style:normal;font-weight:normal;font-size:40px"><flowRegion
         id="flowRegion6627"><rect
           id="rect6629"
           width="45.644238"
           height="743.34906"
           x="1793.1665"
           y="-362.60922" /></flowRegion><flowPara
         id="flowPara6631"></flowPara></flowRoot>    <flowRoot
       xml:space="preserve"
       id="flowRoot6633"
       style="fill:black;stroke:none;stroke-opacity:1;stroke-width:1px;stroke-linejoin:miter;stroke-linecap:butt;fill-opacity:1;font-family:Bitstream Vera Sans;font-style:normal;font-weight:normal;font-size:40px;text-anchor:start;text-align:start;writing-mode:lr;line-height:125%"><flowRegion
         id="flowRegion6635"><rect
           id="rect6637"
           width="163.01514"
           height="78.247269"
           x="593.37512"
           y="354.65738"
           style="text-anchor:start;text-align:start;writing-mode:lr;line-height:125%" /></flowRegion><flowPara
         id="flowPara6641">+</flowPara></flowRoot>  </g>
</svg>
